<svg width="40" height="36" fill="none" xmlns="http://www.w3.org/2000/svg"><path d="M13.643 1.5c3.464 0 6.252 2.784 6.252 6.193 0 3.41-2.788 6.194-6.252 6.194-3.463 0-6.251-2.784-6.252-6.194 0-3.41 2.789-6.193 6.252-6.193z" stroke="#000" stroke-width="3"/><rect width="14.264" height="2.462" rx="1.231" fill="#000"/><rect x="37.519" y="18.041" width="12.309" height="2.481" rx="1.24" transform="rotate(-90 37.52 18.041)" fill="#000"/><rect x="40" y="8.193" width="12.403" height="2.462" rx="1.231" transform="rotate(180 40 8.193)" fill="#000"/><rect width="7.619" height="2.467" rx="1.234" transform="matrix(-.8405 .54182 -.54764 -.83672 34.732 4.526)" fill="#000"/><rect width="7.619" height="2.467" rx="1.234" transform="matrix(-.8405 -.54182 -.54764 .83672 34.732 9.553)" fill="#000"/><rect x="5.271" y="18.156" width="12.309" height="2.481" rx="1.24" transform="rotate(90 5.271 18.156)" fill="#000"/><rect x="2.791" y="28.004" width="12.403" height="2.462" rx="1.231" fill="#000"/><rect width="7.619" height="2.467" rx="1.234" transform="matrix(.8405 -.54182 .54764 .83672 8.059 31.67)" fill="#000"/><rect width="7.619" height="2.467" rx="1.234" transform="matrix(.8405 .54182 .54764 -.83672 8.059 26.645)" fill="#000"/><rect width="17.251" height="2.478" rx="1.239" transform="matrix(.3725 -.92803 .92996 .36765 20.53 35.071)" fill="#000"/><rect width="17.251" height="2.478" rx="1.239" transform="matrix(-.3725 -.92803 -.92996 .36765 34.777 35.089)" fill="#000"/><rect width="8.682" height="2.462" rx="1.231" transform="matrix(-1 0 0 1 31.938 27.389)" fill="#000"/></svg>